<?xml version="1.0" encoding="UTF-8"?>
<svg id="Calque_1" data-name="Calque 1" xmlns="http://www.w3.org/2000/svg" viewBox="0 0 504.19 330.81">
  <defs>
    <style>
      .cls-1 {
        fill: #fff;
      }

      .cls-2 {
        fill: #f4f2f2;
      }

      .cls-3 {
        fill: #d4bdac;
        stroke: #000;
        stroke-miterlimit: 10;
        stroke-width: .25px;
      }
    </style>
  </defs>
  <path class="cls-3" d="M205.02,326.67H10.75c-5.87,0-10.62-4.75-10.62-10.62V14.3C.12,8.43,4.88,3.68,10.75,3.68h482.7c5.87,0,10.62,4.75,10.62,10.62v301.9c0,5.87-4.75,10.62-10.62,10.62h-195.2s-4.82-.06-4.85,1.74c-.05,2.24-5.08,2.12-5.08,2.12h-73.94s-3,.09-4.02-2.46c-.67-1.69-3.82-1.63-4.75-1.57-.19.01-.39.02-.58.02Z"/>
  <path class="cls-2" d="M253.99,315.2c-13.6.17-18.18,4.02-19.63,5.96-.52.7-1.36,1.09-2.24,1.09l-220.14-.22c-2.03,0-3.68-1.65-3.68-3.68V12.9c0-1.81,1.32-3.36,3.11-3.64,28.86-4.39,217.77-19.26,241.73,1.53,23.96-20.79,212.87-5.92,241.73-1.53,1.79.27,3.11,1.82,3.11,3.64v305.46c0,2.03-1.64,3.68-3.68,3.68l-220.14.22c-.87,0-1.71-.39-2.24-1.09-1.45-1.94-6.03-5.79-19.63-5.96h1.67Z"/>
  <path class="cls-1" d="M253.15,10.79v304.43c41.5-8.18,184.06-5.26,215.7-2.52,3.08.27,5.72-2.16,5.72-5.25V11.83c0-2.74-2.1-5.02-4.83-5.25-30.16-2.51-192.01-14.98-216.59,4.21Z"/>
  <path class="cls-1" d="M253.15,10.79v304.43c-41.51-8.18-184.06-5.26-215.7-2.52-3.08.27-5.72-2.16-5.72-5.25V11.83c0-2.74,2.1-5.02,4.83-5.25,30.16-2.51,192.01-14.98,216.59,4.21Z"/>
</svg>