<svg width="1165" height="780" viewBox="0 0 1165 780" fill="none" xmlns="http://www.w3.org/2000/svg">
<path fill-rule="evenodd" clip-rule="evenodd" d="M262.848 748H555.305H578.225H902.266L912 780H578.225H555.305H254L262.848 748Z" fill="#74C2FF"/>
<path d="M607 676H558V780H607V676Z" fill="#262726"/>
<path d="M0 0V728H1165V0H0ZM1113.48 658.496H51.5185V55.2927H1113.48V658.496Z" fill="#74C2FF"/>
<path d="M1116.76 41H48.2403C43.136 41 39 45.1749 39 50.3272V663.673C39 668.825 43.136 673 48.2403 673H1116.76C1121.86 673 1126 668.825 1126 663.673V50.3272C1126 45.1749 1121.86 41 1116.76 41ZM1113.29 658.367H51.7124V55.6191H1113.29V658.367Z" fill="#262726"/>
</svg>
