<svg width="270" height="155" viewBox="0 0 270 155" fill="none" xmlns="http://www.w3.org/2000/svg">
<path d="M3.73584 57.4545L70.6399 44.9321V139.166L3.73584 154.413V57.4545Z" fill="#D4BDAC"/>
<path d="M10.5767 64.5491L65.7112 54.2339V131.913L10.5767 144.503V64.5491Z" fill="#E2E690"/>
<path d="M3.73566 154.413L0 153.219V56.5762L3.73566 57.4545V154.413Z" fill="#F9F3DD"/>
<path d="M0 56.576L66.094 44.0986L70.6398 44.9319L3.73566 57.4544L0 56.576Z" fill="#F9F3DD"/>
<path d="M64.541 54.4591V132.184L65.7103 131.913V54.2339L64.541 54.4591Z" fill="#F9F3DD"/>
<path d="M10.5767 144.503L64.541 132.183V131.012L10.5767 142.994V144.503Z" fill="#F9F3DD"/>
<path d="M202.828 13.3559L269.732 0.855957V95.0668L202.828 110.337V13.3559Z" fill="#D4BDAC"/>
<path d="M209.669 20.4505L264.804 10.1353V87.8147L209.669 100.405V20.4505Z" fill="#E2E690"/>
<path d="M202.828 110.337L199.092 109.143V12.5L202.828 13.3558V110.337Z" fill="#F9F3DD"/>
<path d="M199.092 12.4999L265.186 0L269.732 0.855842L202.828 13.3557L199.092 12.4999Z" fill="#F9F3DD"/>
<path d="M263.633 10.3605V88.1075L264.803 87.8147V10.1353L263.633 10.3605Z" fill="#F9F3DD"/>
<path d="M209.669 100.404L263.633 88.1073V86.9136L209.669 98.8954V100.404Z" fill="#F9F3DD"/>
<path d="M106.507 34.0906L173.751 21.5156V116.293L106.507 131.655V34.0906Z" fill="#D4BDAC"/>
<path d="M113.363 41.2278L168.819 30.8506V108.997L113.363 121.663V41.2278Z" fill="#E2E690"/>
<path d="M106.507 131.654L102.751 130.431V33.2295L106.507 34.0905V131.654Z" fill="#F9F3DD"/>
<path d="M102.751 33.2298L169.181 20.6548L173.751 21.5158L106.507 34.0908L102.751 33.2298Z" fill="#F9F3DD"/>
<path d="M167.643 31.0772V109.269L168.819 108.997V30.8506L167.643 31.0772Z" fill="#F9F3DD"/>
<path d="M113.363 121.663L167.643 109.269V108.091L113.363 120.145V121.663Z" fill="#F9F3DD"/>
</svg>
