<svg width="76" height="43" viewBox="0 0 76 43" fill="none" xmlns="http://www.w3.org/2000/svg">
<g id="Livre">
<path id="Vector" d="M31.9722 31.6086L72.2092 23.1853L71.0615 24.7168L71.6916 26.4735L70.6789 27.1042L71.1065 27.8024L71.4666 28.7483L70.724 29.5365L70.6114 30.3924L71.6241 31.1807V31.9239L73.2669 32.4645L72.7943 33.3654L74.4371 33.523L74.7071 34.1537L31.7022 41.631C31.7022 41.631 30.1494 42.3293 29.0017 40.2797C27.854 38.2302 29.7443 30.7528 30.8695 30.6852C31.9947 30.6176 31.9497 31.6086 31.9497 31.6086H31.9722Z" fill="white" stroke="black" stroke-width="0.1" stroke-linecap="round" stroke-linejoin="round"/>
<path id="Vector_2" d="M71.0615 24.7168L54.5887 28.005" stroke="black" stroke-width="0.1" stroke-linecap="round" stroke-linejoin="round"/>
<path id="Vector_3" d="M71.7141 26.4736L48.1525 31.0006" stroke="black" stroke-width="0.1" stroke-linecap="round" stroke-linejoin="round"/>
<path id="Vector_4" d="M71.4891 28.7485L64.6254 29.9872" stroke="black" stroke-width="0.1" stroke-linecap="round" stroke-linejoin="round"/>
<path id="Vector_5" d="M73.2894 32.4646L45.6096 37.1492" stroke="black" stroke-width="0.1" stroke-linecap="round" stroke-linejoin="round"/>
<path id="Vector_6" d="M72.8168 33.3655L59.2694 35.7754" stroke="black" stroke-width="0.1" stroke-linecap="round" stroke-linejoin="round"/>
<path id="Vector_7" d="M70.7014 27.1042L66.1107 28.0277" stroke="black" stroke-width="0.1" stroke-linecap="round" stroke-linejoin="round"/>
<path id="Vector_8" d="M71.129 27.8025L69.5762 28.0727" stroke="black" stroke-width="0.1" stroke-linecap="round" stroke-linejoin="round"/>
<path id="Vector_9" d="M70.6339 30.3926L61.3398 32.0818" stroke="black" stroke-width="0.1" stroke-linecap="round" stroke-linejoin="round"/>
<path id="Vector_10" d="M71.6466 31.9241L65.683 32.9151" stroke="black" stroke-width="0.1" stroke-linecap="round" stroke-linejoin="round"/>
<path id="Vector_11" d="M71.6466 31.2034L54.4311 34.1988" stroke="black" stroke-width="0.1" stroke-linecap="round" stroke-linejoin="round"/>
<path id="Vector_12" d="M70.7464 29.5591L41.0863 35.0996" stroke="black" stroke-width="0.1" stroke-linecap="round" stroke-linejoin="round"/>
<path id="Vector_13" d="M67.911 20.5503L72.2092 23.1854L31.9722 31.6088L32.4448 30.7079L67.911 20.5503Z" fill="white" stroke="black" stroke-width="0.1" stroke-linecap="round" stroke-linejoin="round"/>
<path id="Vector_14" d="M32.1747 31.1809L71.1965 20.3251L66.4932 18.2756L32.1747 31.1809Z" fill="white" stroke="black" stroke-width="0.1" stroke-linecap="round" stroke-linejoin="round"/>
<path id="Vector_15" d="M32.1747 31.1807L69.7563 17.8925L63.9502 15.325L30.8695 30.6852L32.1747 31.1807Z" fill="white" stroke="black" stroke-width="0.1" stroke-linecap="round" stroke-linejoin="round"/>
<path id="Vector_16" d="M32.1747 31.1809C31.0495 33.0503 30.2169 39.5817 31.3196 41.2258" stroke="black" stroke-width="0.1" stroke-linecap="round" stroke-linejoin="round"/>
<path id="Vector_17" d="M69.2162 11.9693L35.0778 1.02343C34.9427 0.978387 34.7852 1.00092 34.6502 1.06849L8.50065 14.8296C8.50065 14.8296 8.43313 14.8747 8.38812 14.8972C8.09557 15.1675 6.61033 16.4737 5.55264 16.9917C5.50763 17.0143 5.46264 17.0368 5.39513 17.0368C4.83253 17.1044 1.36693 17.7575 1.02937 22.0142C0.669307 26.6313 3.72981 28.5908 4.20239 28.9511C4.67498 29.3115 27.7865 41.3609 29.8344 42.442C29.9469 42.487 30.0369 42.5095 30.1494 42.487L75.1572 34.9195C75.1572 34.9195 75.3598 34.8745 75.4273 34.7168C75.4948 34.4691 75.2697 34.379 75.2697 34.379L74.7972 34.1988L31.0271 41.7888C30.757 41.8338 30.4645 41.6762 30.397 41.406C29.8344 38.8835 29.8344 32.3069 32.5573 30.2124C32.6473 30.1448 32.7374 30.1222 32.8499 30.0997C33.255 30.0547 34.4252 29.7844 35.6854 28.6358C35.7304 28.6133 35.7754 28.5682 35.7979 28.5457L69.2612 13.0053C69.7113 12.8026 69.6663 12.1494 69.1937 11.9918L69.2162 11.9693Z" fill="#D4BDAC" stroke="black" stroke-width="0.25" stroke-miterlimit="10"/>
<path id="Vector_18" d="M31.5897 32.6673L47.86 29.4241" stroke="black" stroke-width="0.1" stroke-linecap="round" stroke-linejoin="round"/>
<path id="Vector_19" d="M31.2296 34.2664L41.919 32.2844" stroke="black" stroke-width="0.1" stroke-linecap="round" stroke-linejoin="round"/>
<path id="Vector_20" d="M31.4321 33.5681L35.3928 32.8474" stroke="black" stroke-width="0.1" stroke-linecap="round" stroke-linejoin="round"/>
<path id="Vector_21" d="M30.9595 35.7754L44.8444 33.1628" stroke="black" stroke-width="0.1" stroke-linecap="round" stroke-linejoin="round"/>
<path id="Vector_22" d="M30.8245 37.7573L39.8936 36.0906" stroke="black" stroke-width="0.1" stroke-linecap="round" stroke-linejoin="round"/>
<path id="Vector_23" d="M30.8245 38.9736L44.0568 36.4961" stroke="black" stroke-width="0.1" stroke-linecap="round" stroke-linejoin="round"/>
<path id="Vector_24" d="M31.1395 40.8653L36.833 39.9194" stroke="black" stroke-width="0.1" stroke-linecap="round" stroke-linejoin="round"/>
<path id="Vector_25" d="M30.937 40.0771L40.5912 38.3203" stroke="black" stroke-width="0.1" stroke-linecap="round" stroke-linejoin="round"/>
</g>
</svg>
