<svg width="104" height="87" viewBox="0 0 104 87" fill="none" xmlns="http://www.w3.org/2000/svg">
<g id="Group 1">
<path id="Vector" d="M31.7755 84.729L103.158 73.2877L77.0983 63.9634L2.76794 75.4048L31.7755 84.729Z" fill="#5200F4"/>
<path id="Vector_2" d="M31.7755 84.7289V86.1253L103.158 74.6614V73.2876" fill="#74C2FF"/>
<path id="Vector_3" d="M31.7755 86.1254L2.76794 76.666V75.4048L31.7755 84.729V86.1254Z" fill="#74C2FF"/>
<path id="Vector_4" d="M97.9595 61.1029L2.97046 79.864V15.315L98.477 1.12598L97.9595 61.1029Z" fill="#74C2FF"/>
<path id="Vector_5" d="M2.97052 79.8642L0 78.6255V14.1216L2.97052 15.3153V79.8642Z" fill="#5200F4"/>
<path id="Vector_6" d="M2.97051 15.3152L98.4771 1.12612L95.0565 0L0 14.1215L2.97051 15.3152Z" fill="#5200F4"/>
<path id="Vector_7" d="M95.484 59.4363L5.49091 76.6884V17.3422L95.9566 4.30176L95.484 59.4363Z" fill="white"/>
</g>
</svg>
